<svg width="232" height="36" viewBox="0 0 232 36" fill="none" xmlns="http://www.w3.org/2000/svg">
<path d="M4 32L22.8231 8.47107C27.4086 2.7392 36.2148 3.02117 40.4242 9.03464L50.9884 24.1263C55.3676 30.3822 64.6324 30.3822 69.0116 24.1264L78.9884 9.87366C83.3676 3.61777 92.6324 3.61776 97.0116 9.87364L106.988 24.1263C111.368 30.3822 120.632 30.3822 125.012 24.1264L134.988 9.87366C139.368 3.61777 148.632 3.61776 153.012 9.87364L162.988 24.1263C167.368 30.3822 176.632 30.3822 181.012 24.1264L191.576 9.03465C195.785 3.02118 204.591 2.73921 209.177 8.47108L228 32" stroke="#7A77D1" stroke-width="8" stroke-linecap="round"/>
</svg>
