<svg width="32" height="32" viewBox="0 0 32 32" fill="none" xmlns="http://www.w3.org/2000/svg">
<path d="M18.6667 9.33333C18.6667 7.86057 19.8606 6.66667 21.3333 6.66667H25.3333C26.8061 6.66667 28 7.86057 28 9.33333V13.3333C28 14.8061 26.8061 16 25.3333 16H21.3333C19.8606 16 18.6667 14.8061 18.6667 13.3333V9.33333Z" fill="#34364A"/>
<path d="M18.6667 21.3333C18.6667 19.8606 19.8606 18.6667 21.3333 18.6667H25.3333C26.8061 18.6667 28 19.8606 28 21.3333V25.3333C28 26.8061 26.8061 28 25.3333 28H21.3333C19.8606 28 18.6667 26.8061 18.6667 25.3333V21.3333Z" fill="#34364A"/>
<path d="M6.66667 21.3333C6.66667 19.8606 7.86057 18.6667 9.33333 18.6667H13.3333C14.8061 18.6667 16 19.8606 16 21.3333V25.3333C16 26.8061 14.8061 28 13.3333 28H9.33333C7.86057 28 6.66667 26.8061 6.66667 25.3333V21.3333Z" fill="#34364A"/>
<path d="M4 6.66667C4 5.19391 5.19391 4 6.66667 4H13.3333C14.8061 4 16 5.19391 16 6.66667V13.3333C16 14.8061 14.8061 16 13.3333 16H6.66667C5.19391 16 4 14.8061 4 13.3333V6.66667Z" fill="#34364A"/>
</svg>
