<svg width="37" height="37" viewBox="0 0 37 37" fill="none" xmlns="http://www.w3.org/2000/svg">
<path d="M9.24967 3.08333C5.84392 3.08333 3.08301 5.84424 3.08301 9.24999V16.9583H19.4028L15.8679 13.4235C15.2658 12.8214 15.2658 11.8453 15.8679 11.2432C16.4699 10.6411 17.4461 10.6411 18.0481 11.2432L24.2148 17.4099C24.8169 18.0119 24.8169 18.9881 24.2148 19.5901L18.0481 25.7568C17.4461 26.3588 16.4699 26.3588 15.8679 25.7568C15.2658 25.1547 15.2658 24.1786 15.8679 23.5765L19.4028 20.0417H3.08301V27.75C3.08301 31.1558 5.84392 33.9167 9.24967 33.9167H27.7497C31.1554 33.9167 33.9163 31.1558 33.9163 27.75V9.25C33.9163 5.84424 31.1554 3.08333 27.7497 3.08333H9.24967Z" fill="#4F4F4F"/>
</svg>
