<svg width="40" height="40" viewBox="0 0 40 40" fill="none" xmlns="http://www.w3.org/2000/svg">
<path fill-rule="evenodd" clip-rule="evenodd" d="M19.9997 36.6667C29.2044 36.6667 36.6663 29.2048 36.6663 20C36.6663 10.7953 29.2044 3.33334 19.9997 3.33334C10.7949 3.33334 3.33301 10.7953 3.33301 20C3.33301 29.2048 10.7949 36.6667 19.9997 36.6667ZM19.9997 18.3333C22.7611 18.3333 24.9997 16.0948 24.9997 13.3333C24.9997 10.5719 22.7611 8.33334 19.9997 8.33334C17.2383 8.33334 14.9997 10.5719 14.9997 13.3333C14.9997 16.0948 17.2383 18.3333 19.9997 18.3333ZM9.99967 26.6667C11.2497 22.9167 17.4997 21.6667 19.9997 21.6667C22.4997 21.6667 28.7497 22.9167 29.9997 26.6667C28.7497 30.4167 23.7497 31.6667 19.9997 31.6667C16.2497 31.6667 11.2497 30.4167 9.99967 26.6667Z" fill="#34364A"/>
</svg>
