<svg width="74" height="74" viewBox="0 0 74 74" fill="none" xmlns="http://www.w3.org/2000/svg">
<circle cx="37" cy="37" r="37" fill="#F6F4FF"/>
<path d="M50.298 47.6097C49.1572 46.4604 46.3943 44.783 45.0537 44.1071C43.308 43.2278 43.1643 43.156 41.7922 44.1753C40.877 44.8556 40.2685 45.4633 39.1973 45.2349C38.1262 45.0064 35.7986 43.7184 33.7605 41.6869C31.7224 39.6554 30.3596 37.2605 30.1305 36.193C29.9013 35.1255 30.5191 34.5243 31.193 33.6069C32.1427 32.3139 32.0708 32.0984 31.2591 30.3528C30.6261 28.9951 28.8998 26.2582 27.7461 25.1232C26.5119 23.9042 26.5119 24.1197 25.7166 24.4501C25.0692 24.7225 24.448 25.0536 23.861 25.4393C22.7116 26.2029 22.0736 26.8372 21.6275 27.7905C21.1814 28.7437 20.9809 30.9785 23.2848 35.1636C25.5887 39.3487 27.2051 41.4887 30.5507 44.8247C33.8963 48.1607 36.4689 49.9544 40.2297 52.0635C44.882 54.6689 46.6665 54.1611 47.6227 53.7157C48.5789 53.2703 49.2161 52.6382 49.9812 51.4888C50.3679 50.9028 50.6998 50.2824 50.9726 49.6355C51.3038 48.8431 51.5193 48.8431 50.298 47.6097Z" stroke="#5D5D64" stroke-width="2" stroke-miterlimit="10"/>
</svg>
