<svg width="74" height="74" viewBox="0 0 74 74" fill="none" xmlns="http://www.w3.org/2000/svg">
<circle cx="37" cy="37" r="37" fill="#F6F4FF"/>
<path d="M51.2308 37.7116C51.2308 29.4596 44.5405 22.7693 36.2885 22.7693C28.0365 22.7693 21.3462 29.4596 21.3462 37.7116C21.3462 45.9636 28.0365 52.6539 36.2885 52.6539C44.5405 52.6539 51.2308 45.9636 51.2308 37.7116Z" stroke="#5D5D64" stroke-width="2" stroke-miterlimit="10"/>
<path d="M50.4443 31.7788C49.288 31.786 49.4017 33.9318 47.961 32.9194C47.4261 32.5443 47.097 31.9989 46.4253 31.8331C45.8385 31.6882 45.2373 31.8389 44.6577 31.9395C43.9989 32.054 43.2177 32.1054 42.718 32.6073C42.2349 33.0903 41.9793 33.7385 41.4652 34.2244C40.4709 35.1659 40.0512 36.1936 40.6948 37.5246C41.314 38.8043 42.6093 39.4988 44.0068 39.4076C45.3798 39.3156 46.8061 38.5146 46.7665 40.5214C46.7521 41.2312 46.8997 41.7236 47.1165 42.3834C47.3173 42.9917 47.3037 43.5812 47.3497 44.2091C47.4347 45.3823 47.6493 46.6975 48.2281 47.7338L49.3081 46.2014C49.4413 46.0117 49.7199 45.7459 49.7862 45.5221C49.9035 45.1259 49.6724 44.4452 49.6458 44.0013C49.6192 43.5573 49.6321 43.1076 49.5644 42.6636C49.4694 42.0415 49.1036 41.4586 49.0532 40.8437C48.9604 39.6987 49.1684 38.7848 48.2915 37.8274C47.4448 36.904 46.2035 36.6824 45.0177 36.87C44.4201 36.9641 42.0146 37.3508 42.9801 35.977C43.1709 35.7069 43.5043 35.4853 43.7188 35.2282C43.9053 35.0044 44.0673 34.5931 44.2862 34.4185C44.505 34.244 45.5102 34.0434 45.7981 34.1325C46.0861 34.2215 46.3864 34.6394 46.6362 34.8248C47.0978 35.1745 47.6365 35.4071 48.2065 35.5027C49.19 35.6475 51.2463 35.0725 51.2305 33.8037C51.2276 33.1953 50.666 32.348 50.4443 31.7788ZM39.0597 42.219C38.676 40.5938 36.4807 40.0507 35.2971 39.1693C34.6167 38.6624 34.0111 37.8795 33.1176 37.8158C32.7058 37.7861 32.3609 37.8759 31.9527 37.7694C31.5783 37.6724 31.2845 37.4696 30.8857 37.5225C30.1405 37.621 29.6703 38.4219 28.8697 38.3133C28.1101 38.2105 27.3275 37.3168 27.1547 36.589C26.9329 35.6533 27.6687 35.3499 28.4571 35.2666C28.7862 35.2318 29.1555 35.1941 29.4716 35.3151C29.8878 35.4708 30.0843 35.8807 30.458 36.0878C31.1585 36.4738 31.3004 35.8568 31.1931 35.2311C31.0325 34.294 30.8453 33.9116 31.6762 33.267C32.2522 32.8224 32.7447 32.5008 32.6525 31.702C32.5978 31.2327 32.3422 31.0205 32.5805 30.5534C32.7612 30.1978 33.2573 29.877 33.5806 29.6648C34.4151 29.1173 37.1554 29.1579 36.0358 27.6254C35.7067 27.1757 35.0998 26.3718 34.5238 26.2617C33.8038 26.1249 33.4841 26.9331 32.9823 27.2894C32.4639 27.658 31.4545 28.0766 30.9353 27.5067C30.2369 26.7397 31.3983 26.4877 31.6553 25.9525C31.9124 25.4173 31.0599 24.4056 30.6034 24.1492L28.4571 26.5703C28.3955 26.9757 28.4169 27.3896 28.5202 27.7864C28.6235 28.1832 28.8063 28.5545 29.0576 28.8776C29.4846 29.4302 30.1642 29.6076 30.1952 30.3622C30.2254 31.0864 30.1131 31.4572 29.6422 31.9663C29.4385 32.1836 29.2945 32.4921 29.0871 32.6956C28.833 32.944 28.9273 32.868 28.5306 32.9361C27.7847 33.0628 27.1496 33.2583 26.4289 33.4582C25.228 33.7921 25.1171 31.8186 24.5699 31.0444L22.7699 32.5066C22.7505 32.7463 23.0651 33.1874 23.1508 33.4481C23.6425 34.9378 24.6347 36.09 25.2755 37.5152C25.9501 39.0245 27.7616 38.6059 28.5615 39.9283C29.2714 41.1015 28.5133 42.5869 29.0446 43.8151C29.4306 44.7066 30.3406 44.9014 30.9685 45.5532C31.61 46.2115 31.5963 47.1125 31.6942 47.9692C31.8046 48.9769 31.9839 49.9758 32.2306 50.9587C32.3177 51.2984 32.3976 51.7474 32.6288 52.0277C32.7872 52.2203 33.3308 52.3861 33.1112 52.4499C33.4179 52.5006 33.9643 52.7888 34.2199 52.5773C34.5569 52.2992 34.4669 51.4432 34.5252 51.0565C34.7002 49.905 35.2733 48.7789 36.0466 47.917C36.8105 47.0668 37.8573 46.4911 38.5025 45.5272C39.131 44.5871 39.3204 43.319 39.0597 42.219ZM36.6557 44.1251C36.2237 44.9007 35.2618 45.42 34.6433 46.0363C34.4755 46.2036 34.1184 46.7829 33.9082 46.6576C33.7577 46.5678 33.7066 45.8161 33.6512 45.6438C33.3651 44.7758 32.8191 44.0182 32.088 43.4748C31.8627 43.3031 31.304 43.0801 31.1751 42.8447C31.0311 42.589 31.1607 41.9858 31.1657 41.7077C31.1737 41.3021 30.9901 40.6279 31.0894 40.2593C31.2046 39.8342 30.9829 40.0905 31.3609 40.0065C31.5603 39.9616 32.384 40.1072 32.6324 40.1593C33.0269 40.2419 33.2444 40.4888 33.5554 40.7387C34.3733 41.3984 35.274 41.909 36.1906 42.4145C36.9005 42.8099 37.1093 43.3104 36.6557 44.1251ZM31.6445 24.171C31.9858 24.5063 32.3069 24.9031 32.816 24.9364C33.2976 24.969 33.752 24.7069 34.1724 25.0364C34.639 25.3985 34.9752 25.8569 35.5944 25.9699C36.1934 26.0792 36.8278 25.7273 36.9761 25.111C37.1201 24.5236 36.8098 23.8849 36.791 23.2954C36.791 23.2136 36.835 22.85 36.7788 22.7884C36.737 22.7421 36.3886 22.7942 36.3353 22.7957C35.9451 22.8073 35.5558 22.8343 35.1675 22.8768C33.7518 23.0309 32.3654 23.3882 31.0505 23.9378C31.2255 24.0594 31.4451 24.108 31.6445 24.171ZM44.0241 28.2396C44.6354 28.2396 45.256 27.9644 45.0587 27.2532C44.8931 26.6572 44.6109 26.0104 43.924 26.332C43.487 26.5362 42.8678 27.0562 42.8167 27.5718C42.7583 28.157 43.6166 28.2396 44.0241 28.2396ZM43.5359 31.3515C44.1602 31.7274 45.0861 31.5506 45.557 31.014C45.9249 30.594 46.1416 29.8647 46.8033 29.8654C47.0946 29.8648 47.3744 29.9795 47.5823 30.1848C47.8559 30.4694 47.8019 30.7366 47.8602 31.0929C47.9905 31.8932 48.8437 31.1386 49.0662 30.8286C49.2102 30.6266 49.4053 30.3267 49.3398 30.0638C49.2793 29.8183 48.9942 29.5569 48.8675 29.3317C48.4974 28.6799 48.1928 27.9216 47.6385 27.3951C47.1049 26.8882 46.449 26.9469 45.9429 27.4734C45.5282 27.9079 45.0465 28.2519 44.7628 28.7805C44.5626 29.1521 44.3373 29.3295 43.9319 29.4258C43.7087 29.4787 43.4539 29.4982 43.2667 29.6489C42.7454 30.0617 43.042 31.0531 43.5359 31.3515Z" fill="#5D5D64"/>
</svg>
